<svg width="1200" height="420" viewBox="0 0 1200 420" fill="none" xmlns="http://www.w3.org/2000/svg">
  <rect width="1200" height="420" fill="transparent"/>
  <g fill="#2f3033">
    <path d="M140 44C88 44 46 86 46 138V282C46 334 88 376 140 376H330C382 376 424 334 424 282V220H230V170H476V282C476 363 411 428 330 428H140C59 428 -6 363 -6 282V138C-6 57 59 -8 140 -8H330C411 -8 476 57 476 138V170H424V138C424 86 382 44 330 44H140Z"/>
    <path d="M646 44C594 44 552 86 552 138V282C552 334 594 376 646 376H866C918 376 960 334 960 282V246H908V282C908 334 866 376 814 376H646C594 376 552 334 552 282V138C552 86 594 44 646 44H814C866 44 908 86 908 138V170H960V138C960 57 895 -8 814 -8H646C565 -8 500 57 500 138V282C500 363 565 428 646 428H814C895 428 960 363 960 282V246H1008V196H908V170H1008V120H1180V296H1008V246H960V282C960 363 895 428 814 428H646C565 428 500 363 500 282V138C500 57 565 -8 646 -8H814C895 -8 960 57 960 138V170H908V138C908 86 866 44 814 44H646Z"/>
  </g>
  <text x="114" y="402" font-family="Tahoma, Arial, sans-serif" font-size="110" font-weight="500" fill="#2f3033">Elma Café</text>
</svg>
